<?xml version="1.0" standalone="no"?><!DOCTYPE svg PUBLIC "-//W3C//DTD SVG 1.1//EN" "http://www.w3.org/Graphics/SVG/1.1/DTD/svg11.dtd"><svg t="1609921894543" class="icon" viewBox="0 0 1024 1024" version="1.1" xmlns="http://www.w3.org/2000/svg" p-id="4054" width="32" height="32" xmlns:xlink="http://www.w3.org/1999/xlink"><defs><style type="text/css"></style></defs><path d="M445.44384 415.04a36.672 36.672 0 0 0 62.848 26.048l178.496-178.56a36.8 36.8 0 0 0 0-52.096L508.29184 31.808a36.352 36.352 0 0 0-26.048-10.752 36.928 36.928 0 0 0-26.048 62.912L608.64384 236.48 456.19584 388.992a36.352 36.352 0 0 0-10.752 26.048zM215.29984 451.904a36.8 36.8 0 0 0 26.048-62.912L88.89984 236.48l152.448-152.576a36.864 36.864 0 0 0-52.096-52.096L10.75584 210.432A36.288 36.288 0 0 0 0.00384 236.48c0 9.856 3.776 19.136 10.752 26.048l178.496 178.496a36.48 36.48 0 0 0 26.048 10.88zM294.53184 472.704l8.32 0.96a36.8 36.8 0 0 0 35.904-28.544L430.97984 45.248a36.736 36.736 0 0 0-4.672-27.84 36.48 36.48 0 0 0-22.976-16.448L395.07584 0a37.184 37.184 0 0 0-35.904 28.672L266.88384 428.608a36.992 36.992 0 0 0 27.648 44.096zM649.60384 576v85.76h136.32V1024h101.12v-362.24H1024.00384V576zM459.33184 740.352c14.528 18.048-0.256 33.984-21.824 33.984H365.37984v25.216c0 72.96 31.488 128.64 92.288 162.624 11.072 6.72 8.64 13.76 0 13.76-108.288-1.472-230.08-93.184-230.08-198.592v-3.008H159.23584c-25.536 0-36.224-14.656-21.632-32.768l135.168-168.064c14.464-17.984 38.208-17.984 52.736 0.064l133.824 166.784z" fill="#2c2c2c" p-id="4055"></path></svg>